<svg width="32" height="32" viewBox="0 0 32 32" fill="none" xmlns="http://www.w3.org/2000/svg">
<path d="M5.33337 8.0013C5.33337 7.64768 5.47385 7.30854 5.7239 7.05849C5.97395 6.80844 6.31309 6.66797 6.66671 6.66797H25.3334C25.687 6.66797 26.0261 6.80844 26.2762 7.05849C26.5262 7.30854 26.6667 7.64768 26.6667 8.0013C26.6667 8.35492 26.5262 8.69406 26.2762 8.94411C26.0261 9.19416 25.687 9.33464 25.3334 9.33464H6.66671C6.31309 9.33464 5.97395 9.19416 5.7239 8.94411C5.47385 8.69406 5.33337 8.35492 5.33337 8.0013ZM5.33337 24.0013C5.33337 23.6477 5.47385 23.3085 5.7239 23.0585C5.97395 22.8084 6.31309 22.668 6.66671 22.668H25.3334C25.687 22.668 26.0261 22.8084 26.2762 23.0585C26.5262 23.3085 26.6667 23.6477 26.6667 24.0013C26.6667 24.3549 26.5262 24.6941 26.2762 24.9441C26.0261 25.1942 25.687 25.3346 25.3334 25.3346H6.66671C6.31309 25.3346 5.97395 25.1942 5.7239 24.9441C5.47385 24.6941 5.33337 24.3549 5.33337 24.0013ZM14.6667 14.668C14.3131 14.668 13.9739 14.8084 13.7239 15.0585C13.4738 15.3085 13.3334 15.6477 13.3334 16.0013C13.3334 16.3549 13.4738 16.6941 13.7239 16.9441C13.9739 17.1942 14.3131 17.3346 14.6667 17.3346H25.3334C25.687 17.3346 26.0261 17.1942 26.2762 16.9441C26.5262 16.6941 26.6667 16.3549 26.6667 16.0013C26.6667 15.6477 26.5262 15.3085 26.2762 15.0585C26.0261 14.8084 25.687 14.668 25.3334 14.668H14.6667Z" fill="white"/>
</svg>
