<svg width="18" height="16" viewBox="0 0 18 16" fill="none" xmlns="http://www.w3.org/2000/svg">
<path d="M13.4966 15.9993C13.3763 15.9997 13.259 15.9622 13.1613 15.8921L8.56871 12.5626L3.97615 15.8921C3.87803 15.9633 3.75983 16.0014 3.63862 16.001C3.51741 16.0005 3.39948 15.9616 3.30189 15.8897C3.20429 15.8178 3.13208 15.7168 3.0957 15.6011C3.05931 15.4855 3.06064 15.3613 3.09949 15.2465L4.89066 9.94119L0.248463 6.75771C0.14791 6.68883 0.0720183 6.5896 0.0318765 6.47452C-0.00826528 6.35944 -0.0105534 6.23453 0.0253465 6.11806C0.0612464 6.00158 0.133453 5.89964 0.231416 5.82712C0.329379 5.75461 0.447964 5.71532 0.569846 5.715H6.29689L8.02522 0.396109C8.06245 0.281276 8.1351 0.181186 8.23274 0.1102C8.33038 0.0392128 8.448 0.000976562 8.56871 0.000976562C8.68943 0.000976562 8.80705 0.0392128 8.90469 0.1102C9.00233 0.181186 9.07498 0.281276 9.11221 0.396109L10.8405 5.71678H16.5676C16.6896 5.71672 16.8085 5.75574 16.9067 5.82812C17.005 5.90049 17.0775 6.00243 17.1136 6.11899C17.1497 6.23556 17.1476 6.36062 17.1075 6.47588C17.0674 6.59114 16.9914 6.69053 16.8907 6.75949L12.2468 9.94119L14.0369 15.2451C14.0659 15.3309 14.074 15.4225 14.0607 15.5121C14.0473 15.6018 14.0128 15.687 13.96 15.7606C13.9072 15.8343 13.8377 15.8944 13.7571 15.9359C13.6765 15.9774 13.5872 15.9991 13.4966 15.9993Z" fill="#F3B050"/>
</svg>
