<svg width="24" height="24" viewBox="0 0 24 24" fill="none" xmlns="http://www.w3.org/2000/svg">
<path d="M6.59891 16.2017C7.92423 16.2017 8.99861 15.1274 8.99861 13.802C8.99861 12.4767 7.92423 11.4023 6.59891 11.4023C5.2736 11.4023 4.19922 12.4767 4.19922 13.802C4.19922 15.1274 5.2736 16.2017 6.59891 16.2017Z" stroke="#418BFF" stroke-width="1.5" stroke-linecap="round" stroke-linejoin="round"/>
<path d="M10.1991 21.0009C10.1991 20.0463 9.81985 19.1307 9.14481 18.4556C8.46976 17.7806 7.5542 17.4014 6.59954 17.4014C5.64489 17.4014 4.72933 17.7806 4.05428 18.4556C3.37924 19.1307 3 20.0463 3 21.0009" stroke="#418BFF" stroke-width="1.5" stroke-linecap="round" stroke-linejoin="round"/>
<path d="M20.3983 21.0009C20.3983 20.0463 20.0191 19.1307 19.344 18.4556C18.669 17.7806 17.7534 17.4014 16.7988 17.4014C15.8441 17.4014 14.9285 17.7806 14.2535 18.4556C13.5785 19.1307 13.1992 20.0463 13.1992 21.0009" stroke="#418BFF" stroke-width="1.5" stroke-linecap="round" stroke-linejoin="round"/>
<path d="M16.7981 16.2017C18.1234 16.2017 19.1978 15.1274 19.1978 13.802C19.1978 12.4767 18.1234 11.4023 16.7981 11.4023C15.4728 11.4023 14.3984 12.4767 14.3984 13.802C14.3984 15.1274 15.4728 16.2017 16.7981 16.2017Z" stroke="#418BFF" stroke-width="1.5" stroke-linecap="round" stroke-linejoin="round"/>
<path d="M14.4002 13.8018C14.4002 13.8018 14.4002 16.8014 12.5996 16.8014" stroke="#418BFF" stroke-width="1.5" stroke-linecap="round" stroke-linejoin="round"/>
<path d="M19.1992 13.8018C19.1992 13.8018 19.1992 16.8014 20.9982 16.8014" stroke="#418BFF" stroke-width="1.5" stroke-linecap="round" stroke-linejoin="round"/>
<path d="M15.4156 3.60318C15.2342 3.41289 15.0161 3.26141 14.7744 3.15791C14.5328 3.0544 14.2726 3.00104 14.0097 3.00104C13.7469 3.00104 13.4867 3.0544 13.2451 3.15791C13.0034 3.26141 12.7853 3.41289 12.6039 3.60318L11.3985 4.85102L10.1938 3.60318C10.0124 3.41287 9.79419 3.26137 9.55248 3.15786C9.31076 3.05435 9.05055 3.00098 8.78761 3.00098C8.52466 3.00098 8.26445 3.05435 8.02274 3.15786C7.78102 3.26137 7.56283 3.41287 7.38139 3.60318C7.00747 3.99484 6.79883 4.51551 6.79883 5.057C6.79883 5.59849 7.00747 6.11916 7.38139 6.51081L10.9705 10.2215C11.0258 10.2794 11.0922 10.3254 11.1658 10.3569C11.2393 10.3883 11.3185 10.4045 11.3985 10.4045C11.4785 10.4045 11.5576 10.3883 11.6312 10.3569C11.7047 10.3254 11.7712 10.2794 11.8264 10.2215L15.4156 6.51081C15.7895 6.11916 15.9981 5.59849 15.9981 5.057C15.9981 4.51551 15.7895 3.99484 15.4156 3.60318Z" stroke="#418BFF" stroke-width="1.5" stroke-linecap="round" stroke-linejoin="round"/>
</svg>
