<svg width="24" height="25" viewBox="0 0 24 25" fill="none" xmlns="http://www.w3.org/2000/svg">
<path d="M13.6667 7.83398C13.0542 7.83398 12.4567 8.11065 12 8.53898C11.5433 8.11065 10.9458 7.83398 10.3333 7.83398C8.33917 7.83398 7 9.17315 7 11.1665C7 14.0557 11.1033 16.6007 11.5708 16.8807C11.7033 16.9607 11.8517 16.9998 12 16.9998C12.1483 16.9998 12.2967 16.9607 12.4292 16.8807C12.8975 16.5998 17 14.0548 17 11.1665C17 9.17315 15.6608 7.83398 13.6667 7.83398ZM12 15.1757C10.815 14.3715 8.66667 12.6157 8.66667 11.1665C8.66667 10.6657 8.82917 9.50065 10.3333 9.50065C10.7075 9.50065 11.1667 9.95982 11.1667 10.3332C11.1667 10.7932 11.54 11.1665 12 11.1665C12.46 11.1665 12.8333 10.7932 12.8333 10.3332C12.8333 9.95982 13.2925 9.50065 13.6667 9.50065C15.1708 9.50065 15.3333 10.6657 15.3333 11.1665C15.3333 12.6148 13.185 14.3715 12 15.1757Z" fill="#418BFF"/>
<path d="M22 11.1667H20.2908C19.8992 7.23583 16.7642 4.10167 12.8333 3.71V2H11.1667V3.71C7.23583 4.10167 4.10083 7.23583 3.70917 11.1667H2V12.8333H3.70917C4.10083 16.7642 7.23583 19.8992 11.1667 20.2908V22H12.8333V20.2908C16.7642 19.8983 19.8992 16.7642 20.2908 12.8333H22V11.1667V11.1667ZM12.8333 18.6092V17.8333H11.1667V18.6092C8.1575 18.2317 5.76917 15.8433 5.39083 12.8333H6.16667V11.1667H5.39083C5.76917 8.1575 8.15667 5.76917 11.1667 5.39167V6.16667H12.8333V5.39167C15.8425 5.76917 18.2308 8.1575 18.6092 11.1667H17.8333V12.8333H18.6092C18.2308 15.8433 15.8433 18.2317 12.8333 18.6092Z" fill="#418BFF"/>
</svg>
