<svg width="24" height="24" viewBox="0 0 24 24" fill="none" xmlns="http://www.w3.org/2000/svg">
<path d="M16.4966 19.9983C16.3763 19.9988 16.259 19.9613 16.1613 19.8912L11.5687 16.5616L6.97615 19.8912C6.87803 19.9623 6.75983 20.0004 6.63862 20C6.51741 19.9996 6.39948 19.9606 6.30189 19.8887C6.20429 19.8168 6.13208 19.7158 6.0957 19.6002C6.05931 19.4845 6.06064 19.3603 6.09949 19.2455L7.89066 13.9402L3.24846 10.7567C3.14791 10.6879 3.07202 10.5886 3.03188 10.4735C2.99173 10.3585 2.98945 10.2336 3.02535 10.1171C3.06125 10.0006 3.13345 9.89866 3.23142 9.82615C3.32938 9.75363 3.44796 9.71434 3.56985 9.71402H9.29689L11.0252 4.39513C11.0625 4.2803 11.1351 4.18021 11.2327 4.10922C11.3304 4.03824 11.448 4 11.5687 4C11.6894 4 11.807 4.03824 11.9047 4.10922C12.0023 4.18021 12.075 4.2803 12.1122 4.39513L13.8405 9.71581H19.5676C19.6896 9.71575 19.8085 9.75476 19.9067 9.82714C20.005 9.89952 20.0775 10.0015 20.1136 10.118C20.1497 10.2346 20.1476 10.3596 20.1075 10.4749C20.0674 10.5902 19.9914 10.6896 19.8907 10.7585L15.2468 13.9402L17.0369 19.2441C17.0659 19.33 17.074 19.4215 17.0607 19.5112C17.0473 19.6008 17.0128 19.686 16.96 19.7597C16.9072 19.8333 16.8377 19.8934 16.7571 19.9349C16.6765 19.9764 16.5872 19.9981 16.4966 19.9983Z" fill="#418BFF"/>
</svg>
